{
	"asset":{
		"generator":"Khronos glTF Blender I/O v3.6.27",
		"version":"2.0"
	},
	"extensionsUsed":[
		"KHR_materials_specular",
		"KHR_materials_ior"
	],
	"scene":0,
	"scenes":[
		{
			"name":"Scene",
			"nodes":[
				0,
				1,
				2,
				3,
				4,
				6
			]
		}
	],
	"nodes":[
		{
			"extras":{
				"MaxHandle":1196709
			},
			"mesh":0,
			"name":"sleeve1_1",
			"rotation":[
				0,
				-0.21643954515457153,
				0,
				0.9762960076332092
			],
			"scale":[
				0.0010000000474974513,
				0.0010000000474974513,
				0.0010000000474974513
			],
			"translation":[
				0.06876981258392334,
				-1.1441704034805298,
				-0.1631779968738556
			]
		},
		{
			"extras":{
				"MaxHandle":1196712
			},
			"mesh":1,
			"name":"body1",
			"rotation":[
				0,
				-0.21643954515457153,
				0,
				0.9762960076332092
			],
			"scale":[
				0.0010000000474974513,
				0.0010000000474974513,
				0.0010000000474974513
			],
			"translation":[
				0.06830745935440063,
				-1.1446359157562256,
				-0.16245925426483154
			]
		},
		{
			"extras":{
				"MaxHandle":1196715
			},
			"mesh":2,
			"name":"pants1",
			"rotation":[
				0,
				-0.21643954515457153,
				0,
				0.9762960076332092
			],
			"scale":[
				0.0010000000474974513,
				0.0010000000474974513,
				0.0010000000474974513
			],
			"translation":[
				0.06830781698226929,
				-1.1446360349655151,
				-0.1624602973461151
			]
		},
		{
			"extras":{
				"MaxHandle":1196949
			},
			"name":"hoody laces1",
			"scale":[
				0.0010000000474974513,
				0.0010000000474974513,
				0.0010000000474974513
			],
			"translation":[
				-0.05684453248977661,
				0.25863224267959595,
				0.1977173089981079
			]
		},
		{
			"extras":{
				"MaxHandle":1196703
			},
			"mesh":3,
			"name":"Torus221",
			"rotation":[
				0.669366717338562,
				0.5054805278778076,
				0.2520882487297058,
				0.48258593678474426
			],
			"translation":[
				34.284366607666016,
				111.46885681152344,
				-6.482090473175049
			]
		},
		{
			"extras":{
				"MaxHandle":1196950
			},
			"name":"hoody laces2",
			"translation":[
				-1.9874267578125,
				-3.4882631301879883,
				4.978102684020996
			]
		},
		{
			"children":[
				5
			],
			"extras":{
				"MaxHandle":1196954
			},
			"name":"hoody laces2_1",
			"scale":[
				0.0010000000474974513,
				0.0010000000474974513,
				0.0010000000474974513
			],
			"translation":[
				0.3637986183166504,
				1.023676872253418,
				-0.4202684462070465
			]
		}
	],
	"materials":[
		{
			"doubleSided":true,
			"extensions":{
				"KHR_materials_specular":{
					"specularColorFactor":[
						2.371357614441398,
						2.371357614441398,
						2.371357614441398
					]
				},
				"KHR_materials_ior":{
					"ior":1.4500000476837158
				}
			},
			"name":"Long sleeve line",
			"pbrMetallicRoughness":{
				"baseColorTexture":{
					"index":0
				},
				"metallicFactor":0
			}
		},
		{
			"doubleSided":true,
			"extensions":{
				"KHR_materials_specular":{
					"specularColorFactor":[
						2.371357614441398,
						2.371357614441398,
						2.371357614441398
					]
				},
				"KHR_materials_ior":{
					"ior":1.4500000476837158
				}
			},
			"name":"PVC FurnGrad Charcoal Gray",
			"pbrMetallicRoughness":{
				"baseColorFactor":[
					0.03921568766236305,
					0.03921568766236305,
					0.03921568766236305,
					1
				],
				"roughnessFactor":0.5527864098548889
			}
		},
		{
			"doubleSided":true,
			"extensions":{
				"KHR_materials_specular":{
					"specularColorFactor":[
						2.371357614441398,
						2.371357614441398,
						2.371357614441398
					]
				},
				"KHR_materials_ior":{
					"ior":1.4500000476837158
				}
			},
			"name":"pants lacoste",
			"pbrMetallicRoughness":{
				"baseColorTexture":{
					"index":1
				},
				"metallicFactor":0
			}
		},
		{
			"doubleSided":true,
			"extensions":{
				"KHR_materials_specular":{
					"specularColorFactor":[
						2.371357614441398,
						2.371357614441398,
						2.371357614441398
					]
				},
				"KHR_materials_ior":{
					"ior":1.4500000476837158
				}
			},
			"name":"buxiugang.008",
			"pbrMetallicRoughness":{
				"baseColorFactor":[
					0.27450981736183167,
					0.27450981736183167,
					0.27450981736183167,
					1
				],
				"metallicFactor":0,
				"roughnessFactor":0.5527864098548889
			}
		}
	],
	"meshes":[
		{
			"name":"Mesh.045",
			"primitives":[
				{
					"attributes":{
						"POSITION":0,
						"NORMAL":1,
						"TEXCOORD_0":2
					},
					"indices":3,
					"material":0
				}
			]
		},
		{
			"name":"Mesh.048",
			"primitives":[
				{
					"attributes":{
						"POSITION":4,
						"NORMAL":5,
						"TEXCOORD_0":6
					},
					"indices":7,
					"material":1
				}
			]
		},
		{
			"name":"Mesh.051",
			"primitives":[
				{
					"attributes":{
						"POSITION":8,
						"NORMAL":9,
						"TEXCOORD_0":10
					},
					"indices":11,
					"material":2
				}
			]
		},
		{
			"name":"Mesh.057",
			"primitives":[
				{
					"attributes":{
						"POSITION":12,
						"NORMAL":13,
						"TEXCOORD_0":14
					},
					"indices":15,
					"material":3
				}
			]
		}
	],
	"textures":[
		{
			"sampler":0,
			"source":0
		},
		{
			"sampler":0,
			"source":1
		}
	],
	"images":[
		{
			"bufferView":4,
			"mimeType":"image/png",
			"name":"Design ohne Titel (100)"
		},
		{
			"bufferView":13,
			"mimeType":"image/png",
			"name":"10"
		}
	],
	"accessors":[
		{
			"bufferView":0,
			"componentType":5126,
			"count":23754,
			"max":[
				378.8753356933594,
				1607.232177734375,
				443.5758361816406
			],
			"min":[
				-220.01425170898438,
				820.838134765625,
				-159.41676330566406
			],
			"type":"VEC3"
		},
		{
			"bufferView":1,
			"componentType":5126,
			"count":23754,
			"type":"VEC3"
		},
		{
			"bufferView":2,
			"componentType":5126,
			"count":23754,
			"type":"VEC2"
		},
		{
			"bufferView":3,
			"componentType":5123,
			"count":129402,
			"type":"SCALAR"
		},
		{
			"bufferView":5,
			"componentType":5126,
			"count":20965,
			"max":[
				376.2434997558594,
				1794.8905029296875,
				532.1935424804688
			],
			"min":[
				-343.1427001953125,
				677.860595703125,
				-171.94532775878906
			],
			"type":"VEC3"
		},
		{
			"bufferView":6,
			"componentType":5126,
			"count":20965,
			"type":"VEC3"
		},
		{
			"bufferView":7,
			"componentType":5126,
			"count":20965,
			"type":"VEC2"
		},
		{
			"bufferView":8,
			"componentType":5123,
			"count":117972,
			"type":"SCALAR"
		},
		{
			"bufferView":9,
			"componentType":5126,
			"count":19615,
			"max":[
				351.27239990234375,
				1224.3626708984375,
				378.4681091308594
			],
			"min":[
				-358.5921936035156,
				879.2158203125,
				-176.51193237304688
			],
			"type":"VEC3"
		},
		{
			"bufferView":10,
			"componentType":5126,
			"count":19615,
			"type":"VEC3"
		},
		{
			"bufferView":11,
			"componentType":5126,
			"count":19615,
			"type":"VEC2"
		},
		{
			"bufferView":12,
			"componentType":5123,
			"count":100611,
			"type":"SCALAR"
		},
		{
			"bufferView":14,
			"componentType":5126,
			"count":216,
			"max":[
				3.940791606903076,
				1.0099999904632568,
				3.9132094383239746
			],
			"min":[
				-3.940791606903076,
				-1.0099999904632568,
				-3.950000047683716
			],
			"type":"VEC3"
		},
		{
			"bufferView":15,
			"componentType":5126,
			"count":216,
			"type":"VEC3"
		},
		{
			"bufferView":16,
			"componentType":5126,
			"count":216,
			"type":"VEC2"
		},
		{
			"bufferView":17,
			"componentType":5123,
			"count":1104,
			"type":"SCALAR"
		}
	],
	"bufferViews":[
		{
			"buffer":0,
			"byteLength":285048,
			"byteOffset":0,
			"target":34962
		},
		{
			"buffer":0,
			"byteLength":285048,
			"byteOffset":285048,
			"target":34962
		},
		{
			"buffer":0,
			"byteLength":190032,
			"byteOffset":570096,
			"target":34962
		},
		{
			"buffer":0,
			"byteLength":258804,
			"byteOffset":760128,
			"target":34963
		},
		{
			"buffer":0,
			"byteLength":17163,
			"byteOffset":1018932
		},
		{
			"buffer":0,
			"byteLength":251580,
			"byteOffset":1036096,
			"target":34962
		},
		{
			"buffer":0,
			"byteLength":251580,
			"byteOffset":1287676,
			"target":34962
		},
		{
			"buffer":0,
			"byteLength":167720,
			"byteOffset":1539256,
			"target":34962
		},
		{
			"buffer":0,
			"byteLength":235944,
			"byteOffset":1706976,
			"target":34963
		},
		{
			"buffer":0,
			"byteLength":235380,
			"byteOffset":1942920,
			"target":34962
		},
		{
			"buffer":0,
			"byteLength":235380,
			"byteOffset":2178300,
			"target":34962
		},
		{
			"buffer":0,
			"byteLength":156920,
			"byteOffset":2413680,
			"target":34962
		},
		{
			"buffer":0,
			"byteLength":201222,
			"byteOffset":2570600,
			"target":34963
		},
		{
			"buffer":0,
			"byteLength":13149,
			"byteOffset":2771824
		},
		{
			"buffer":0,
			"byteLength":2592,
			"byteOffset":2784976,
			"target":34962
		},
		{
			"buffer":0,
			"byteLength":2592,
			"byteOffset":2787568,
			"target":34962
		},
		{
			"buffer":0,
			"byteLength":1728,
			"byteOffset":2790160,
			"target":34962
		},
		{
			"buffer":0,
			"byteLength":2208,
			"byteOffset":2791888,
			"target":34963
		}
	],
	"samplers":[
		{
			"magFilter":9729,
			"minFilter":9987
		}
	],
	"buffers":[
		{
			"byteLength":2794096,
			"uri":"data:application/octet-stream;base64,"
		}
	]
}
