{
	"asset":{
		"generator":"Khronos glTF Blender I/O v3.6.27",
		"version":"2.0"
	},
	"extensionsUsed":[
		"KHR_materials_specular",
		"KHR_materials_ior"
	],
	"scene":0,
	"scenes":[
		{
			"extras":{
				"uuid":"4936bcc0-7ddd-40e1-9196-fb9faf53c49c",
				"assets reported":{}
			},
			"name":"Scene",
			"nodes":[
				0,
				1,
				2,
				6
			]
		}
	],
	"nodes":[
		{
			"extras":{
				"MaxHandle":1196663
			},
			"mesh":0,
			"name":"pants2",
			"rotation":[
				0,
				0.043619364500045776,
				0,
				0.9990482330322266
			],
			"scale":[
				0.0010000000474974513,
				0.0010000000474974513,
				0.0010000000474974513
			],
			"translation":[
				0.01176297664642334,
				-0.9275668859481812,
				-0.0071836188435554504
			]
		},
		{
			"extras":{
				"MaxHandle":1196664
			},
			"mesh":1,
			"name":"t-shirt2",
			"rotation":[
				0,
				0.043619364500045776,
				0,
				0.9990482330322266
			],
			"scale":[
				0.0010000000474974513,
				0.0010000000474974513,
				0.0010000000474974513
			],
			"translation":[
				0.011700928211212158,
				-0.9251298904418945,
				0.000121288001537323
			]
		},
		{
			"extras":{
				"MaxHandle":1196677
			},
			"mesh":2,
			"name":"body2",
			"rotation":[
				0,
				0.043619364500045776,
				0,
				0.9990482330322266
			],
			"scale":[
				0.0010000000474974513,
				0.0010000000474974513,
				0.0010000000474974513
			],
			"translation":[
				0.7593256831169128,
				-0.927566647529602,
				-0.0659489706158638
			]
		},
		{
			"extras":{
				"MaxHandle":1196667
			},
			"mesh":3,
			"name":"Torus215",
			"rotation":[
				0.709864616394043,
				0.524125337600708,
				0.38909345865249634,
				0.264558345079422
			],
			"translation":[
				27.515869140625,
				96.34063720703125,
				-30.071170806884766
			]
		},
		{
			"children":[
				3
			],
			"extras":{
				"MaxHandle":1196950
			},
			"name":"hoody laces2",
			"translation":[
				-1.9874267578125,
				-3.488284111022949,
				4.978153228759766
			]
		},
		{
			"extras":{
				"MaxHandle":1196668
			},
			"mesh":4,
			"name":"Torus216",
			"rotation":[
				0.46502184867858887,
				0.5225749611854553,
				0.28680744767189026,
				0.6545315384864807
			],
			"translation":[
				30.4971923828125,
				106.705322265625,
				-35.936763763427734
			]
		},
		{
			"children":[
				4,
				5
			],
			"extras":{
				"MaxHandle":1196954
			},
			"name":"hoody laces2_1",
			"scale":[
				0.0010000000474974513,
				0.0010000000474974513,
				0.0010000000474974513
			],
			"translation":[
				0.023336321115493774,
				0.6133255362510681,
				0.058230750262737274
			]
		}
	],
	"materials":[
		{
			"doubleSided":true,
			"extensions":{
				"KHR_materials_specular":{
					"specularColorFactor":[
						2.371357614441398,
						2.371357614441398,
						2.371357614441398
					]
				},
				"KHR_materials_ior":{
					"ior":1.4500000476837158
				}
			},
			"name":"pants white.001",
			"pbrMetallicRoughness":{
				"baseColorTexture":{
					"index":0
				},
				"metallicFactor":0,
				"roughnessFactor":0.699999988079071
			}
		},
		{
			"doubleSided":true,
			"extensions":{
				"KHR_materials_specular":{
					"specularColorFactor":[
						2.371357614441398,
						2.371357614441398,
						2.371357614441398
					]
				},
				"KHR_materials_ior":{
					"ior":1.4500000476837158
				}
			},
			"name":"T-shirts everlast.001",
			"pbrMetallicRoughness":{
				"baseColorTexture":{
					"index":1
				},
				"metallicFactor":0,
				"roughnessFactor":0.699999988079071
			}
		},
		{
			"doubleSided":true,
			"extensions":{
				"KHR_materials_specular":{
					"specularColorFactor":[
						2.371357614441398,
						2.371357614441398,
						2.371357614441398
					]
				},
				"KHR_materials_ior":{
					"ior":1.4500000476837158
				}
			},
			"name":"PVC FurnGrad Charcoal Gray.001",
			"pbrMetallicRoughness":{
				"baseColorFactor":[
					0.03921568766236305,
					0.03921568766236305,
					0.03921568766236305,
					1
				],
				"metallicFactor":0,
				"roughnessFactor":0.5527864098548889
			}
		},
		{
			"doubleSided":true,
			"extensions":{
				"KHR_materials_specular":{
					"specularColorFactor":[
						2.371357614441398,
						2.371357614441398,
						2.371357614441398
					]
				},
				"KHR_materials_ior":{
					"ior":1.4500000476837158
				}
			},
			"name":"buxiugang.017",
			"pbrMetallicRoughness":{
				"baseColorFactor":[
					0.27450981736183167,
					0.27450981736183167,
					0.27450981736183167,
					1
				],
				"metallicFactor":0,
				"roughnessFactor":0.5527864098548889
			}
		}
	],
	"meshes":[
		{
			"name":"Mesh.091",
			"primitives":[
				{
					"attributes":{
						"POSITION":0,
						"NORMAL":1,
						"TEXCOORD_0":2
					},
					"indices":3,
					"material":0
				}
			]
		},
		{
			"name":"Mesh.092",
			"primitives":[
				{
					"attributes":{
						"POSITION":4,
						"NORMAL":5,
						"TEXCOORD_0":6
					},
					"indices":7,
					"material":1
				}
			]
		},
		{
			"name":"Mesh.102",
			"primitives":[
				{
					"attributes":{
						"POSITION":8,
						"NORMAL":9,
						"TEXCOORD_0":10
					},
					"indices":11,
					"material":2
				}
			]
		},
		{
			"name":"Mesh.138",
			"primitives":[
				{
					"attributes":{
						"POSITION":12,
						"NORMAL":13,
						"TEXCOORD_0":14
					},
					"indices":15,
					"material":3
				}
			]
		},
		{
			"name":"Mesh.139",
			"primitives":[
				{
					"attributes":{
						"POSITION":16,
						"NORMAL":17,
						"TEXCOORD_0":18
					},
					"indices":15,
					"material":3
				}
			]
		}
	],
	"textures":[
		{
			"sampler":0,
			"source":0
		},
		{
			"sampler":0,
			"source":1
		}
	],
	"images":[
		{
			"bufferView":4,
			"mimeType":"image/png",
			"name":"Design ohne Titel - 2025-01-11T180046.522"
		},
		{
			"bufferView":9,
			"mimeType":"image/png",
			"name":"Design ohne Titel - 2025-01-11T180001.713"
		}
	],
	"accessors":[
		{
			"bufferView":0,
			"componentType":5126,
			"count":21023,
			"max":[
				280.5660095214844,
				1170.5098876953125,
				126.05144500732422
			],
			"min":[
				-188.0401611328125,
				177.45370483398438,
				-151.5705108642578
			],
			"type":"VEC3"
		},
		{
			"bufferView":1,
			"componentType":5126,
			"count":21023,
			"type":"VEC3"
		},
		{
			"bufferView":2,
			"componentType":5126,
			"count":21023,
			"type":"VEC2"
		},
		{
			"bufferView":3,
			"componentType":5123,
			"count":105135,
			"type":"SCALAR"
		},
		{
			"bufferView":5,
			"componentType":5126,
			"count":18596,
			"max":[
				267.65570068359375,
				1683.0159912109375,
				111.18826293945312
			],
			"min":[
				-255.73948669433594,
				1018.3271484375,
				-198.53822326660156
			],
			"type":"VEC3"
		},
		{
			"bufferView":6,
			"componentType":5126,
			"count":18596,
			"type":"VEC3"
		},
		{
			"bufferView":7,
			"componentType":5126,
			"count":18596,
			"type":"VEC2"
		},
		{
			"bufferView":8,
			"componentType":5123,
			"count":91341,
			"type":"SCALAR"
		},
		{
			"bufferView":10,
			"componentType":5126,
			"count":21439,
			"max":[
				-370.89837646484375,
				1936.16552734375,
				231.34237670898438
			],
			"min":[
				-1023.8921508789062,
				42.1790771484375,
				-227.74951171875
			],
			"type":"VEC3"
		},
		{
			"bufferView":11,
			"componentType":5126,
			"count":21439,
			"type":"VEC3"
		},
		{
			"bufferView":12,
			"componentType":5126,
			"count":21439,
			"type":"VEC2"
		},
		{
			"bufferView":13,
			"componentType":5123,
			"count":121194,
			"type":"SCALAR"
		},
		{
			"bufferView":14,
			"componentType":5126,
			"count":216,
			"max":[
				3.940791606903076,
				1.0099999904632568,
				3.9132094383239746
			],
			"min":[
				-3.940791606903076,
				-1.0099999904632568,
				-3.950000047683716
			],
			"type":"VEC3"
		},
		{
			"bufferView":15,
			"componentType":5126,
			"count":216,
			"type":"VEC3"
		},
		{
			"bufferView":16,
			"componentType":5126,
			"count":216,
			"type":"VEC2"
		},
		{
			"bufferView":17,
			"componentType":5123,
			"count":1104,
			"type":"SCALAR"
		},
		{
			"bufferView":18,
			"componentType":5126,
			"count":216,
			"max":[
				3.940791606903076,
				1.0099999904632568,
				3.9132094383239746
			],
			"min":[
				-3.940791606903076,
				-1.0099999904632568,
				-3.950000047683716
			],
			"type":"VEC3"
		},
		{
			"bufferView":19,
			"componentType":5126,
			"count":216,
			"type":"VEC3"
		},
		{
			"bufferView":20,
			"componentType":5126,
			"count":216,
			"type":"VEC2"
		}
	],
	"bufferViews":[
		{
			"buffer":0,
			"byteLength":252276,
			"byteOffset":0,
			"target":34962
		},
		{
			"buffer":0,
			"byteLength":252276,
			"byteOffset":252276,
			"target":34962
		},
		{
			"buffer":0,
			"byteLength":168184,
			"byteOffset":504552,
			"target":34962
		},
		{
			"buffer":0,
			"byteLength":210270,
			"byteOffset":672736,
			"target":34963
		},
		{
			"buffer":0,
			"byteLength":14165,
			"byteOffset":883008
		},
		{
			"buffer":0,
			"byteLength":223152,
			"byteOffset":897176,
			"target":34962
		},
		{
			"buffer":0,
			"byteLength":223152,
			"byteOffset":1120328,
			"target":34962
		},
		{
			"buffer":0,
			"byteLength":148768,
			"byteOffset":1343480,
			"target":34962
		},
		{
			"buffer":0,
			"byteLength":182682,
			"byteOffset":1492248,
			"target":34963
		},
		{
			"buffer":0,
			"byteLength":81752,
			"byteOffset":1674932
		},
		{
			"buffer":0,
			"byteLength":257268,
			"byteOffset":1756684,
			"target":34962
		},
		{
			"buffer":0,
			"byteLength":257268,
			"byteOffset":2013952,
			"target":34962
		},
		{
			"buffer":0,
			"byteLength":171512,
			"byteOffset":2271220,
			"target":34962
		},
		{
			"buffer":0,
			"byteLength":242388,
			"byteOffset":2442732,
			"target":34963
		},
		{
			"buffer":0,
			"byteLength":2592,
			"byteOffset":2685120,
			"target":34962
		},
		{
			"buffer":0,
			"byteLength":2592,
			"byteOffset":2687712,
			"target":34962
		},
		{
			"buffer":0,
			"byteLength":1728,
			"byteOffset":2690304,
			"target":34962
		},
		{
			"buffer":0,
			"byteLength":2208,
			"byteOffset":2692032,
			"target":34963
		},
		{
			"buffer":0,
			"byteLength":2592,
			"byteOffset":2694240,
			"target":34962
		},
		{
			"buffer":0,
			"byteLength":2592,
			"byteOffset":2696832,
			"target":34962
		},
		{
			"buffer":0,
			"byteLength":1728,
			"byteOffset":2699424,
			"target":34962
		}
	],
	"samplers":[
		{
			"magFilter":9729,
			"minFilter":9987
		}
	],
	"buffers":[
		{
			"byteLength":2701152,
			"uri":"data:application/octet-stream;base64,"
		}
	]
}
